<?xml version="1.0" encoding="utf-8"?>

<!-- Generator: Adobe Illustrator 18.0.0, SVG Export Plug-In . SVG Version: 6.00 Build 0)  -->
<!DOCTYPE svg PUBLIC "-//W3C//DTD SVG 1.1//EN" "http://www.w3.org/Graphics/SVG/1.1/DTD/svg11.dtd">

<svg version="1.1" id="Calque_1" xmlns="http://www.w3.org/2000/svg"
     x="0px" y="0px" viewBox="0 0 650 340" height="340px" width="650px">

    <path fill="#6A6983" d="M-394.9,624.4c5-62.2,54.2-88.9,112.4-60.3c31.4,15.4,56,13,80.7-12.2c14-14.3,31.6-25.4,48.7-36.2
	c53.9-34,131.2-20.6,169.4,30.4C59.6,604,64.5,669.8,44.2,736.2C16.7,826.1-73.2,860.6-155.1,815c-18.4-10.2-34.7-24.5-50.9-38.1
	c-18-15.2-36.4-20.1-58.6-9.6c-13.9,6.6-28.2,14.9-43.1,18.2c-11.6,2.5-37.3,3.2-39.3-4.8c-0.5-7.1,8.2-5.9,13.2-10.6
	c27.6-25.5,14.6-73.7-61.5-77.5C-394.9,669.9-396.7,646.8-394.9,624.4z"/>
</svg>
