<?xml version="1.0" encoding="utf-8"?>
<!-- Generator: Adobe Illustrator 18.0.0, SVG Export Plug-In . SVG Version: 6.00 Build 0)  -->
<!DOCTYPE svg PUBLIC "-//W3C//DTD SVG 1.1//EN" "http://www.w3.org/Graphics/SVG/1.1/DTD/svg11.dtd">
<svg version="1.1" id="Calque_1" xmlns="http://www.w3.org/2000/svg" x="0px" y="0px"
	 viewBox="0 0 340 650" enable-background="new 0 0 340 650" xml:space="preserve">
<path fill="#FFFFFF" d="M170.7,286.1c3.2,0.3,3.6,1.7,3.9,4.4c0.2,2.4,1.4,4.7,2.2,7c2.6-1.2,5.2-2.4,7.8-3.6c1.4-0.6,3.5-2.2,4-1.8
	c1.2,1,2.3,2.9,2.3,4.5c0,2.1-0.9,4.3-1.9,6.1c-3.4,5.8-1.7,10.2,2.7,14.6c6.4,6.4,9.9,13.9,8.9,23.3c-1.2,11.9-10.3,18.7-19.8,21
	c-3.5,0.9-7.2,1-10.9,1.5c-15.2-0.3-26.1-7.4-29.3-19.5c-2.5-9.2,0.3-17.4,6.5-23.9c5.7-6,7.5-11.5,2.7-19c-1.5-2.5-0.7-6.5-0.5-9.8
	c0-0.7,2-1.7,3.1-1.9c0.5-0.1,1.4,1.5,1.9,2.4c0.5,0.8,0.5,2.3,1.1,2.7c2.1,1.4,4.5,2.4,6.7,3.6c0.8-1.8,2.3-3.8,2.1-5.5
	C163.9,287.1,165.9,285.7,170.7,286.1z"/>
<path d="M168.4,538.6C84.3,537.2,23.8,497.7,5.9,430.5c-13.6-51,1.7-96.3,36.1-132.8c31.6-33.5,41.3-63.9,15.2-105.5
	c-8.5-13.6-10.4-30.4-6.2-48.3c3-13,14.8-19.4,20.8-16.8c10.2,4.4,6.8,18.7,13.6,28.8c8.7,13,25.4,16.5,40.3,16.3
	c12.3-3,12.9-18,12.1-27.8c-2.3-27.9,8.3-35.9,35.1-33.4c17.7,1.7,20.1,9.5,21.5,24.5c1.2,13.2,0.3,34.3,13.6,37
	c39,1,45.7-28.7,63.7-27.6c8.7,0.5,12.8,16.3,12.6,24.7c-0.2,11.4-4.7,23.8-10.7,33.9c-19,32.1-9.4,56.7,15.1,81.2
	c35.4,35.3,54.7,77.2,49.3,129.2C331.3,480,262.4,538.6,168.4,538.6z"/>
</svg>
