<?xml version="1.0" encoding="utf-8"?>
<!-- Generator: Adobe Illustrator 18.0.0, SVG Export Plug-In . SVG Version: 6.00 Build 0)  -->
<!DOCTYPE svg PUBLIC "-//W3C//DTD SVG 1.1//EN" "http://www.w3.org/Graphics/SVG/1.1/DTD/svg11.dtd">
<svg version="1.1" id="Calque_1" xmlns="http://www.w3.org/2000/svg" x="0px" y="0px"
	 viewBox="0 0 340 650" enable-background="new 0 0 340 650" xml:space="preserve">
<g>
	<path d="M145,572c-73.9-8.6-127.5-2.5-142.1-98.2c-4.4-50.8,15.5-88.9,27.7-113.1c23.1-45.8,38.5-90.9,11.8-140.8
		c-6-11.2-10.9-28.9-13.5-41.4C21.5,143,25.7,85.7,46.7,76.9c17.6,1.5,1.3,57.8,41.9,91.5c22.5,18.6,48.9,23.4,54,0.3
		c7.3-32.4,30.6-23,48.9-22.3c22.5,0.8,13.2,20.8,14.8,33.4c1,7.5-0.1,15.2,0.2,22.8c1.2,29.3,25,40,49.9,26
		c17.2-9.6,26.7-22.6,29.9-44.6c1.3-9,5.5-24,17-26.6c5.5-2.9,13.5,2.1,16.3,23.6c3.2,23.9-0.4,51.7-13.4,71
		c-26,38.5-13.2,73.9,3.3,112.3c17.5,40.8,32.4,81.4,28.5,126.9c-2.2,26.1-2,39.2-28.9,58.3C291.6,562.2,276.5,576,145,572z"/>
</g>
</svg>
