<?xml version="1.0" encoding="utf-8"?>
<!-- Generator: Adobe Illustrator 18.0.0, SVG Export Plug-In . SVG Version: 6.00 Build 0)  -->
<!DOCTYPE svg PUBLIC "-//W3C//DTD SVG 1.1//EN" "http://www.w3.org/Graphics/SVG/1.1/DTD/svg11.dtd">
<svg version="1.1" id="Calque_1" xmlns="http://www.w3.org/2000/svg" x="0px" y="0px"
	 viewBox="0 0 340 650" enable-background="new 0 0 340 650" xml:space="preserve">
<path d="M36,327.7c17.4-37.6,20.4-74.2,6.6-113C30.3,180.3,22.4,145.2,32,108.4c5.2-20.2,13.8-24.4,26.3-22
	c11,3.3,11.7,22,12.6,32.1c2.2,25,16.7,35.5,30.3,40.3c15,5.3,28.5,2.4,43.4-10c10.5-8.7,35.9-6.6,52.1-5.5
	c3.2,0.2,3.5,17.3,3.3,26.1c-0.4,20.2,18,37.2,37.6,37.2c19.3,0,33.9-20.8,38.9-35c3.8-10.8,5.1-24.4,20.5-26.7
	c14.1,1.4,18.6,19.9,19.3,30.9c1.1,17.3-1.5,37-9.2,52.3c-22.6,44.6-19.2,85,3.7,129c15,28.9,24.8,62.7,27.7,95
	c4.7,53.8-23.7,89.2-76.7,102.9c-59.9,15.5-120.7,13.5-179.7-3c-62.8-17.5-92.7-71.3-77-135.1C12.7,386.6,22.8,356.2,36,327.7"/>
</svg>
