<?xml version="1.0" encoding="utf-8"?>
<!-- Generator: Adobe Illustrator 18.0.0, SVG Export Plug-In . SVG Version: 6.00 Build 0)  -->
<!DOCTYPE svg PUBLIC "-//W3C//DTD SVG 1.1//EN" "http://www.w3.org/Graphics/SVG/1.1/DTD/svg11.dtd">
<svg version="1.1" id="Calque_1" xmlns="http://www.w3.org/2000/svg" x="0px" y="0px"
	 viewBox="0 0 340 650" enable-background="new 0 0 340 650" xml:space="preserve">
<path fill="#FFFFFF" d="M149.4,308.9c-1.5-3.6-2.4-7.6-2.5-11.5c-0.2-6,3.8-9.3,9.4-7.5c5,1.7,9.6,2.1,14.6,1c1.4-0.3,2.9,0,5.2,0
	c0,2.6-0.5,4.8,0.1,6.5c0.8,2.1,2.2,5,3.9,5.5c1.7,0.5,4.6-1.1,6.2-2.6c1.6-1.5,2-4.1,3.2-6c0.6-1,2-2.3,2.8-2.1
	c1.2,0.2,3,1.6,3.1,2.5c0.2,3.7,0.8,7.9-0.6,11c-3.8,8.2-3.8,15.6,0.8,23.6c2.5,4.3,3.7,9.6,4.3,14.7c1.1,9-5.3,16.5-14.3,17
	c-9.1,0.5-18.3,0.7-27.4,0c-14.1-1.1-20.1-10.5-15.6-24.1c1.5-4.5,3.9-8.8,6-13.1C151.3,318.9,151.5,314.1,149.4,308.9z"/>
<path d="M198.3,125.3c0,15.2,0.5,29.2,4.2,39.1c4.5,12.3,12.6,28.9,22.6,31.8c9.8,2.9,26.5-6.3,35.6-15c9-8.5,11.5-23.5,18.5-34.7
	c3.5-5.6,9.4-12.3,16-12.3c7,0,15.1,3.6,17.7,14.3c4.9,20.1,4.7,45.2-3.6,63.2c-21.8,47.4-21.9,89.7,4.8,135.7
	c14.3,24.7,21.4,55.4,24.9,84.2c6.2,51.5-30.3,94.6-82.3,97.5c-52.2,2.9-105,4-157.1,0.1c-81.2-6.1-115.4-60.4-89.4-138.2
	c8.7-26,22.4-50.4,34.7-75c14.1-28.2,15.4-55.4,3.3-85.3c-8.4-20.6-13.8-43.8-14.3-66.1c-0.9-34.5,21.9-53.7,53.8-43
	c22.3,7.5,53,20.5,70.7,13.4c2.5-1,2.6-9.9,2.6-9.9S185.1,125.3,198.3,125.3z"/>
</svg>
