<?xml version="1.0" encoding="utf-8"?>
<!-- Generator: Adobe Illustrator 18.0.0, SVG Export Plug-In . SVG Version: 6.00 Build 0)  -->
<!DOCTYPE svg PUBLIC "-//W3C//DTD SVG 1.1//EN" "http://www.w3.org/Graphics/SVG/1.1/DTD/svg11.dtd">
<svg version="1.1" id="Calque_1" xmlns="http://www.w3.org/2000/svg" x="0px" y="0px"
	 viewBox="0 0 340 650" enable-background="new 0 0 340 650" xml:space="preserve">
<path fill="#FFFFFF" d="M203.6,349c-2.3,11.2-10.3,16.2-20.5,18.5c-9.2,2.1-18.5,1.8-27.5-1.2c-14.6-5-20.6-18.9-13.9-32.8
	c1.3-2.7,2.6-5.4,4.5-7.7c4.8-6,5-12.2,2.5-19.2c-1.9-5.3-3.4-10.8-3.9-16.3c-0.3-3.3,1.9-6.8,3-10.2c0.9,0.1,1.8,0.1,2.7,0.2
	c0.6,1.8,1,3.6,1.9,5.2c1.9,3.5,3.4,7.7,6.4,10.2c4.3,3.6,6.9,2,7.7-3.6c0.1-0.8,0.3-1.6,0.5-2.8h9.9c0,2.4,0,4.5,0,6.6
	c0,2.6-1,6.2,2.6,6.5c3.4,0.3,6.9-0.9,10.3-1.5c0.4-0.1,0.6-0.8,1-1.1c1.5-1.2,3.1-2.4,4.7-3.6c0.5,2.3,1.1,4.6,1.4,6.9
	c0.1,0.9-0.4,2-0.9,2.8c-5.2,8-3,15.1,2.2,22.1C202.8,334.1,205.2,341.1,203.6,349z"/>
<path d="M60.5,122c4.5,16.3,25.5,42.8,43.3,52.7c25.4,14.3,41.5,10.5,40-18.7c-0.2-4.3-0.6-8.5,0.4-14.5c16.2,0,34,0.1,53.6,0.1
	c0,12.5,0,23.4,0,34.3c0,13.4,0.2,25.8,13.7,33.8c11.5,6.8,45.5,7,56.5-7.8c13.5-18.3,15.4-22.6,26.4-24.3
	c9.4,3.5,11.6,33.6,2.2,50.6c-23.8,43.2-15.8,78.2,11.5,114.5c24.2,32.2,36.6,68.4,28.4,109.4c-11.8,58-53.3,84.1-106.3,96.1
	c-48,10.8-95.9,9.4-142.9-6.5c-76-25.7-106.7-98-72.1-170.3c6.7-14,13.7-28.3,23.3-40.2c25-31,26.1-63.2,13.1-99.5
	c-9.8-27.2-17.8-56.1-20-84.7c-1.3-17.2,2.4-53,15.8-53C60.3,94.8,56.9,107.4,60.5,122z"/>
</svg>
