<?xml version="1.0" encoding="utf-8"?>

<!DOCTYPE svg PUBLIC "-//W3C//DTD SVG 1.1//EN" "http://www.w3.org/Graphics/SVG/1.1/DTD/svg11.dtd">

<svg version="1.1" xmlns="http://www.w3.org/2000/svg" viewBox="0 0 32 32">
    <path d="
        M31.7,0.4c-0.3-0.1-0.6-0.2-0.8-0.3c-0.3-0.2-0.7-0.2-0.9,0.1c-0.9,0.8-1.9,1.4-2.7,1.7
        C27,2,26.7,2.4,26.8,2.8c0.1,0.6-0.3,1.1-0.5,1.3l-0.1,0.1l0,0L11.7,17.9c-0.1,0.1-0.5,0.4-0.9,0c-0.5-0.5-0.6-2.2,1.7-4.5
        c0,0,0.6-0.4,0.2-0.8c-0.4-0.4-1.5,0.2-2.3,1c-2.3,2.3-2.3,4-3.4,5.2c-1.4,1.4-4,1.2-5.8,3c0,0-3.3,3,1.3,7.7C6,33,8,32.3,9.6,30.7
        c2-2.1,1.1-4.1,1.7-4.7c1.1-1.1,2.3-0.9,3.4-2.3c0.6-0.8,0.1-1.5-0.5-0.9c-0.5,0.5-1.7,1.1-2.3,0.4c-0.5-0.5-0.3-1.3,0.9-2.7
        L27.4,5.7C28,5.1,28.6,4.9,29,4.8c0.4,0,0.7-0.3,0.9-0.7c0.4-1,1.3-2.1,2-2.7C32.1,0.9,32,0.5,31.7,0.4z M7.7,27.7
        c-0.3,0.3-0.7,0.3-1,0L4,24.9c-0.3-0.3-0.3-0.8,0-1c0.3-0.3,0.7-0.3,1,0l2.7,2.8C8,26.9,8,27.4,7.7,27.7z"
    />
</svg>
