<?xml version="1.0" encoding="utf-8"?>

<!DOCTYPE svg PUBLIC "-//W3C//DTD SVG 1.1//EN" "http://www.w3.org/Graphics/SVG/1.1/DTD/svg11.dtd">

<svg version="1.1" xmlns="http://www.w3.org/2000/svg" viewBox="0 0 32 32">
	<path d="
		M5.2,28.4H4.8c-0.2,0-0.3-0.2-0.3-0.3V4.6c0-0.2,0.2-0.3,0.3-0.3h0.4c0.2,0,0.3,0.2,0.3,0.3v23.5
		C5.5,28.3,5.4,28.4,5.2,28.4z"
	/>
	<path d="M8.5,28.6h-7c-0.3,0-0.5-0.2-0.5-0.5v-0.1c0-0.3,0.2-0.5,0.5-0.5h7c0.3,0,0.5,0.2,0.5,0.5v0.1C9,28.4,8.8,28.6,8.5,28.6z" />
	<path d="M12.9,7.9c-0.2,0.2-2.4-1.3-4.8-3.4s-4.2-4.1-4-4.3c0.2-0.2,2.4,1.3,4.8,3.4S13.1,7.6,12.9,7.9z" />
	<path d="
		M8.1,4.6L2.2,8.5c-0.1,0.1-0.2,0-0.3-0.1L1.7,8.1C1.6,8,1.6,7.9,1.7,7.8l5.9-3.8C7.8,3.9,7.9,3.9,8,4l0.2,0.3
		C8.2,4.4,8.2,4.5,8.1,4.6z"
	/>
	<path d="
		M26.3,13.5h-0.3c-0.2,0-0.4-0.2-0.4-0.4V2.7c0-0.2,0.2-0.4,0.4-0.4h0.3c0.2,0,0.4,0.2,0.4,0.4v10.4
		C26.7,13.3,26.5,13.5,26.3,13.5z"
	/>
	<ellipse cx="26.2" cy="4.5" rx="5.8" ry="0.8" />
	<path d="
		M7.1,22.1c0-4.6,2.9-8.6,6.9-10.2l0.1-0.5h0c0.1-0.6-2.5-1.4-5.7-1.8c-3.2-0.4-5.9-0.3-6,0.3h0L1,20.4
		c-0.1,0.6,2.5,1.4,5.7,1.8c0.1,0,0.3,0,0.4,0C7.2,22.2,7.1,22.2,7.1,22.1z"
	/>
	<path d="
		M11.4,27l-1,4.3c-0.1,0.2-0.3,0.4-0.5,0.3l-0.1,0c-0.3-0.1-0.5-0.3-0.4-0.6l0.9-4.3c0.1-0.2,0.3-0.4,0.5-0.3l0.2,0
		C11.3,26.5,11.5,26.7,11.4,27z"
	/>
	<path d="
		M25.3,27l1,4.3c0.1,0.2,0.3,0.4,0.5,0.3l0.1,0c0.3-0.1,0.5-0.3,0.4-0.6l-0.9-4.3c-0.1-0.2-0.3-0.4-0.5-0.3l-0.2,0
		C25.4,26.5,25.3,26.7,25.3,27z"
	/>
	<ellipse cx="18.3" cy="22.1" rx="9.7" ry="9.6" />
	<path d="M26,9.9c-3.3,0-6,0.1-6,1.1v0.2c3,0.4,5.5,2,7.2,4.3C29.9,15.4,32,15,32,15v-4C32,10,29.3,9.9,26,9.9z" />
</svg>
