<?xml version="1.0" encoding="utf-8"?>

<!DOCTYPE svg PUBLIC "-//W3C//DTD SVG 1.1//EN" "http://www.w3.org/Graphics/SVG/1.1/DTD/svg11.dtd">

<svg version="1.1" xmlns="http://www.w3.org/2000/svg" viewBox="0 0 32 32">
	<path d="
		M32,2l-0.4-1.2c-0.1-0.2-0.2-0.3-0.4-0.4L30,0c-0.2-0.1-0.4,0-0.5,0.1l-1.8,2.1l-0.1,0.6l-9.3,9.1
		c-2.6-1.9-5.7-1.6-6.8-0.4c-2.2,2.3-1,2.6-2.4,4c-1.4,1.4-4.5-0.2-8,3.7c-2.1,2.3-1,7,1.9,9.9s7.6,4,9.9,1.9c3.8-3.5,2.3-6.6,3.7-8
		s1.7-0.2,4-2.4c1.2-1.2,1.5-4.2-0.4-6.8l9.1-9.3l0.6-0.1l2.1-1.8C32,2.4,32,2.2,32,2z M14.8,20c-0.8,0.8-2,0.8-2.8,0
		c-0.8-0.8-0.8-2,0-2.8c0.8-0.8,2-0.8,2.8,0C15.6,18,15.6,19.2,14.8,20z"
	/>
</svg>
