<?xml version="1.0" encoding="utf-8"?>

<!DOCTYPE svg PUBLIC "-//W3C//DTD SVG 1.1//EN" "http://www.w3.org/Graphics/SVG/1.1/DTD/svg11.dtd">

<svg version="1.1" xmlns="http://www.w3.org/2000/svg" viewBox="0 0 32 32">
	<path d="
		M28.5,8.2h-7.3c-1.7,0-3-1.4-3-3.1V3.6c0-2-1.6-3.6-3.5-3.6H2.5C1.1,0,0,1.1,0,2.5v13.1v7.6v5.6
		C0,30.5,1.4,32,3.2,32h25.6c1.8,0,3.2-1.5,3.2-3.3v-5.6v-7.6v-3.8C32,9.8,30.4,8.2,28.5,8.2z M30.2,28.7c0,0.8-0.6,1.4-1.4,1.4H3.2
		c-0.8,0-1.4-0.6-1.4-1.4v-5.6H5v3.3c0,0.5,0.4,0.9,0.9,0.9s0.9-0.4,0.9-0.9v-3.3h2.2v3.3c0,0.5,0.4,0.9,0.9,0.9
		c0.5,0,0.9-0.4,0.9-0.9v-3.3h3h3.3v3.3c0,0.5,0.4,0.9,0.9,0.9c0.5,0,0.9-0.4,0.9-0.9v-3.3h2.2v3.3c0,0.5,0.4,0.9,0.9,0.9
		s0.9-0.4,0.9-0.9v-3.3h2.2v3.3c0,0.5,0.4,0.9,0.9,0.9S27,27,27,26.5v-3.3h3.3V28.7z"
	/>
</svg>
