<?xml version="1.0" encoding="utf-8"?>

<!DOCTYPE svg PUBLIC "-//W3C//DTD SVG 1.1//EN" "http://www.w3.org/Graphics/SVG/1.1/DTD/svg11.dtd">

<svg version="1.1" xmlns="http://www.w3.org/2000/svg" viewBox="0 0 32 32">
	<path d="M0,1.6L1.6,0c0,0,1.4,0.3,3.1,2.3c0,0-1.9,0.9-2.5,2.5C2.2,4.8,0.1,3.4,0,1.6z"/>
	<path d="
		M31.9,29.3c-0.4-0.6-1.5-0.5-1.5-0.5s-1.1,0-1.4-1.1c-0.2-1.2-0.9-1.5-0.9-1.5l-2.3-2L13.4,11.5c0,0-0.6-1.6-1.6-2.2
		C10.8,8.8,9.7,8,9.7,8s-3.2-3.4-3.5-4C6,3.3,5.1,2.8,5.1,2.8c-1.8,1-2.4,2.4-2.4,2.4S3.2,6,3.8,6.3c0.7,0.2,4.1,3.5,4.1,3.5
		s0.8,1.1,1.4,2.1c0.5,1,2.2,1.6,2.2,1.6l12.8,12.4l2,2.3c0,0,0.3,0.7,1.5,0.9c1.2,0.2,1.1,1.4,1.1,1.4s-0.1,1.1,0.5,1.5l0,0
		c0,0,0,0,0,0c0.3,0.2,1.1-0.3,1.7-0.9C31.6,30.4,32.1,29.6,31.9,29.3C32,29.3,32,29.3,31.9,29.3L31.9,29.3z M13.9,14.1
		c0.2-0.2,0.5-0.2,0.7,0c0.2,0.2,0.2,0.5,0,0.7c-0.2,0.2-0.5,0.2-0.7,0C13.7,14.6,13.7,14.3,13.9,14.1z M15.9,16.1
		c0.2-0.2,0.5-0.2,0.7,0c0.2,0.2,0.2,0.5,0,0.7c-0.2,0.2-0.5,0.2-0.7,0C15.7,16.6,15.7,16.3,15.9,16.1z M17.9,18.2
		c0.2-0.2,0.5-0.2,0.7,0c0.2,0.2,0.2,0.5,0,0.7c-0.2,0.2-0.5,0.2-0.7,0C17.8,18.7,17.8,18.4,17.9,18.2z M20,20.2
		c0.2-0.2,0.5-0.2,0.7,0c0.2,0.2,0.2,0.5,0,0.7c-0.2,0.2-0.5,0.2-0.7,0C19.8,20.7,19.8,20.4,20,20.2z M22,22.2
		c0.2-0.2,0.5-0.2,0.7,0c0.2,0.2,0.2,0.5,0,0.7c-0.2,0.2-0.5,0.2-0.7,0C21.8,22.7,21.8,22.4,22,22.2z M23.9,25.1
		c-0.3-0.3-0.3-0.7,0-1c0.3-0.3,0.7-0.3,1,0c0.3,0.3,0.3,0.7,0,1C24.6,25.4,24.1,25.4,23.9,25.1z M27.2,27.3c-0.3,0.3-0.7,0.3-1,0
		c-0.3-0.3-0.3-0.7,0-1c0.3-0.3,0.7-0.3,1,0C27.5,26.5,27.5,27,27.2,27.3z"
	/>
</svg>
