<?xml version="1.0" encoding="utf-8"?>

<!DOCTYPE svg PUBLIC "-//W3C//DTD SVG 1.1//EN" "http://www.w3.org/Graphics/SVG/1.1/DTD/svg11.dtd">

<svg version="1.1" xmlns="http://www.w3.org/2000/svg" viewBox="0 0 32 32">
	<path d="
		M26.7,16.6c-0.8-0.3-1.8-0.1-2.5-0.7c-0.8-0.7-1.1-1.6-1.7-2.4c-0.6-0.8-1.4-1.3-2.4-1.6c-1.1-0.4-2.4-0.4-3.6-0.1
		c-0.2,0.1-2.1,0.9-2.1,0.8c-1.6-1.6-4.3-4.3-5.9-5.9c0.1-0.7-0.1-1.5-0.6-2L5.3,2.1c-0.9-0.9-2.4-0.9-3.3,0s-0.9,2.4,0,3.3L4.6,8
		C5.2,8.5,6,8.7,6.7,8.6c1.6,1.6,4.3,4.3,5.9,5.9c0,0-0.8,1.8-0.9,2c-0.2,0.7-0.2,1.5-0.2,2.3c0.2,2.1,1.6,4.1,3.5,5.1
		c1.1,0.6,1,1,1.3,2.2c0.4,1.4,1,2.7,2.1,3.7c3.1,3.1,8.1,3.1,11.2,0c3.1-3.1,3.1-8.1,0-11.2C28.8,17.6,27.8,17,26.7,16.6z
		 M19.4,22.5c-1.7,0-3.2-1.4-3.2-3.2c0-1.7,1.4-3.2,3.2-3.2c1.7,0,3.2,1.4,3.2,3.2C22.6,21.1,21.2,22.5,19.4,22.5z M26.8,23.4
		l-3.4,3.4C23.2,27,23.1,27,22.9,27s-0.3-0.1-0.5-0.2c-0.3-0.3-0.3-0.7,0-0.9l3.4-3.4c0.3-0.3,0.7-0.3,0.9,0
		C27.1,22.7,27.1,23.2,26.8,23.4z"
	/>
	<path d="
		M19.4,16.9c-1.4,0-2.5,1.1-2.5,2.5s1.1,2.5,2.5,2.5c1.4,0,2.5-1.1,2.5-2.5C22,18,20.8,16.9,19.4,16.9z M17.6,19.4
		c0-1,0.8-1.9,1.9-1.9c1,0,1.9,0.8,1.9,1.9s-0.8,1.9-1.9,1.9C18.4,21.2,17.6,20.4,17.6,19.4z"
	/>
	<path d="
		M6.6,0.1C6.6,0,6.4,0,6.4,0.1L5.7,1.2c-0.1,0.1,0,0.2,0,0.3l0.4,0.4C6.2,2,6.3,2,6.4,1.9l1.1-0.7c0.1-0.1,0.1-0.2,0-0.2
		L6.6,0.1z"
	/>
	<path d="
		M1.2,7.5l0.7-1.1c0.1-0.1,0-0.2,0-0.3L1.5,5.7c-0.1-0.1-0.2-0.1-0.3,0L0.1,6.4C0,6.5,0,6.6,0.1,6.6L1,7.6
		C1,7.6,1.2,7.6,1.2,7.5z"
	/>
	<path d="
		M8.7,2.4L8,3.5C8,3.6,8,3.8,8,3.9l0.4,0.4c0.1,0.1,0.2,0.1,0.3,0l1.1-0.7c0.1-0.1,0.1-0.2,0-0.2L9,2.4
		C8.9,2.3,8.8,2.3,8.7,2.4z"
	/>
	<path d="
		M3.5,9.9l0.7-1.1c0.1-0.1,0-0.2,0-0.3L3.9,8C3.8,8,3.6,7.9,3.5,8L2.4,8.7C2.3,8.8,2.3,8.9,2.4,9l0.9,0.9
		C3.4,10,3.5,10,3.5,9.9z"
	/>
</svg>
