<?xml version="1.0" encoding="utf-8"?>

<!DOCTYPE svg PUBLIC "-//W3C//DTD SVG 1.1//EN" "http://www.w3.org/Graphics/SVG/1.1/DTD/svg11.dtd">

<svg version="1.1" xmlns="http://www.w3.org/2000/svg" viewBox="0 0 32 32">
	<path d="
		M22.5,11.6l-6.1-6.1c0-0.1,0-0.3,0-0.4c0-0.1,0-0.1,0-0.2c0,0,0,0,0,0c0-0.1,0-0.1,0-0.2c0,0,0,0,0,0c0-0.1,0-0.1,0-0.2
		c0,0,0,0,0,0c0-0.1,0-0.1,0.1-0.2c0,0,0,0,0,0c0.1-0.3,0.2-0.6,0.3-0.8c0,0,0,0,0,0c0,0,0-0.1,0.1-0.1c0,0,0-0.1,0-0.1
		c0,0,0-0.1,0.1-0.1c0,0,0-0.1,0.1-0.1c0,0,0-0.1,0.1-0.1c0,0,0-0.1,0.1-0.1c0,0,0-0.1,0.1-0.1c0,0,0.1-0.1,0.1-0.1
		c0,0,0-0.1,0.1-0.1c0,0,0.1-0.1,0.1-0.1c0,0,0-0.1,0.1-0.1c0,0,0.1-0.1,0.1-0.1c0,0,0,0,0.1-0.1C17.9,1.8,18,1.8,18,1.7
		C18.3,1.4,18.6,1.2,19,1c0.2-0.2,0.5-0.3,0.8-0.4c0.3-0.1,0.5-0.2,0.8-0.3c1.1-0.3,2.2-0.3,3.3,0c0.3,0.1,0.5,0.2,0.8,0.3
		c0.3,0.1,0.5,0.3,0.8,0.4c0.3,0.2,0.6,0.5,0.9,0.7c2.3,2.3,2.3,6,0,8.2c-0.1,0.1-0.1,0.1-0.2,0.2c0,0,0,0-0.1,0.1
		c0,0-0.1,0.1-0.1,0.1c0,0-0.1,0-0.1,0.1c0,0-0.1,0.1-0.1,0.1c0,0-0.1,0-0.1,0.1c0,0-0.1,0.1-0.1,0.1c0,0-0.1,0-0.1,0.1
		c0,0-0.1,0-0.1,0.1c0,0-0.1,0-0.1,0.1c0,0-0.1,0-0.1,0.1c0,0-0.1,0-0.1,0.1c0,0-0.1,0-0.1,0c0,0-0.1,0-0.1,0.1c0,0,0,0,0,0
		c-0.3,0.1-0.5,0.2-0.8,0.3c0,0,0,0,0,0c-0.1,0-0.1,0-0.2,0.1c0,0,0,0,0,0c-0.1,0-0.1,0-0.2,0c0,0,0,0,0,0c-0.1,0-0.1,0-0.2,0
		c0,0,0,0,0,0c-0.1,0-0.1,0-0.2,0l0,0C22.8,11.6,22.6,11.6,22.5,11.6z M26.8,20.7c-1-1-2.4-1.6-3.9-1.6s-2.8,0.6-3.9,1.6l-8.4,8.4
		c-0.7,0.7-1.6,1.1-2.6,1.1s-1.9-0.4-2.6-1.1l-0.1-0.1c-1.4-1.4-1.4-3.8,0-5.2l2.2-2.2l0.6,0.6c0.2,0.2,0.4,0.3,0.6,0.3
		c0.2,0,0.4-0.1,0.6-0.2l11.8-9.4c0,0,0,0,0,0l-6.1-6.1c0,0,0,0-0.1-0.1L5.6,18.4c-0.3,0.4-0.3,0.9,0.1,1.2l0.8,0.8l-2.2,2.2
		c-2.1,2.1-2.1,5.6,0,7.7l0.1,0.1c1,1,2.4,1.6,3.9,1.6s2.8-0.6,3.9-1.6l8.4-8.4c0.7-0.7,1.6-1.1,2.6-1.1s1.9,0.4,2.6,1.1l2.3,2.3
		c0.3,0.3,0.9,0.3,1.3,0c0.3-0.3,0.3-0.9,0-1.3L26.8,20.7z"
	/>
</svg>
