<?xml version="1.0" encoding="utf-8"?>
<!-- Generator: Adobe Illustrator 18.0.0, SVG Export Plug-In . SVG Version: 6.00 Build 0)  -->
<!DOCTYPE svg PUBLIC "-//W3C//DTD SVG 1.1//EN" "http://www.w3.org/Graphics/SVG/1.1/DTD/svg11.dtd">
<svg version="1.1" id="bass" xmlns="http://www.w3.org/2000/svg" xmlns:xlink="http://www.w3.org/1999/xlink" x="0px" y="0px"
	 viewBox="-50 600 100 100" enable-background="new -50 600 100 100" xml:space="preserve">
<g>
	<path d="M0.6,614.9c-0.4,0-0.7,0.4-0.7,0.7c0,0.4,0.4,0.7,0.7,0.7c0.4,0,0.7-0.4,0.7-0.7C1.3,615.2,0.9,614.9,0.6,614.9z"/>
	<path d="M2.8,613.6c0-0.4-0.4-0.7-0.7-0.7c-0.4,0-0.7,0.4-0.7,0.7c0,0.4,0.4,0.7,0.7,0.7C2.4,614.3,2.8,613.9,2.8,613.6z"/>
	<rect x="-3.9" y="677.5" width="7.5" height="3.2"/>
	<path d="M-0.9,616.8c-0.4,0-0.7,0.4-0.7,0.7c0,0.4,0.4,0.7,0.7,0.7c0.4,0,0.7-0.4,0.7-0.7C-0.2,617.2-0.5,616.8-0.9,616.8z"/>
	<path d="M3.5,612.2c0.4,0,0.7-0.4,0.7-0.7c0-0.4-0.4-0.7-0.7-0.7c-0.4,0-0.7,0.4-0.7,0.7C2.8,611.8,3.2,612.2,3.5,612.2z"/>
	<path d="M7.1,685.6c-0.6,0-1,0.5-1,1s0.5,1,1,1c0.6,0,0.9-0.5,1-1C8.1,686.1,7.6,685.6,7.1,685.6z"/>
	<path d="M8,678.1c0-0.7-0.6-1.4-1.4-1.4s-1.4,0.6-1.4,1.4c0,0.7,0.6,1.4,1.4,1.4S8,678.8,8,678.1z"/>
	<path d="M-50,600v100H50V600H-50z M12,684.2c0,0,0,7.9-11.6,8.3c-11.6,0.4-12.4-6.5-12.4-8.6s-0.6-2.5,1.5-7.4
		c2.6-3.7,3.4-4.5,1.9-8.8c-3.6-10.4,0-13.1,0.9-12.9c1.9,0.4,1.4,2.9,2.6,5c0.5,0.8,1.8,1.9,3.1,1.1l0.4-40.6
		c-0.7-1.3-2.3-2.4-2.3-2.4l0.9-1.2l-0.8-0.6c-0.2,0.2-0.4,0.3-0.6,0.3c-0.6,0-1-0.5-1-1s0.5-1,1-1s1,0.5,1,1c0,0.1-0.1,0.2-0.1,0.3
		l0.8,0.6l1.1-1.5l-0.7-0.6c-0.2,0.2-0.4,0.3-0.6,0.3c-0.6,0-1-0.5-1-1s0.5-1,1-1s1,0.5,1,1c0,0.1-0.1,0.2-0.1,0.3l0.8,0.6l1.1-1.5
		l-0.8-0.6c-0.1,0.1-0.4,0.2-0.6,0.2c-0.6,0-1-0.5-1-1s0.5-1,1-1s1,0.5,1,1c0,0.1,0,0.3-0.1,0.4l0.8,0.6l1.3-1.8l-0.9-0.7
		c-0.2,0.2-0.4,0.3-0.6,0.3c-0.6,0-1-0.5-1-1s0.5-1,1-1c0.6,0,1,0.5,1,1c0,0.1,0,0.2,0,0.3l0.9,0.7l1.6-2.1c0.4-0.5,1-0.6,1.5-0.1
		l0.6,0.6c0.4,0.4,0.6,1.2,0.3,1.8l-1.8,3.4v5.8c-0.6,0-1.5,0.5-1.8,1.1l0.5,42.9l0,0c4.7,2.2,5.1-3.1,7.1-3.5
		c3.3,2.1-3.3,7.3-1.5,13.8C12.7,679.4,12,684.2,12,684.2z"/>
	<path d="M7,682.9c0,0.6,0.5,1,1,1c0.6,0,1-0.5,1-1c0-0.6-0.5-0.9-1-1C7.4,681.9,7,682.4,7,682.9z"/>
	<rect x="-3.9" y="670.9" width="7.5" height="3.2"/>
	<polygon points="2.9,663.3 -1.9,660.8 2.9,663.3 	"/>
</g>
</svg>
