<?xml version="1.0" encoding="utf-8"?>
<!-- Generator: Adobe Illustrator 18.0.0, SVG Export Plug-In . SVG Version: 6.00 Build 0)  -->
<!DOCTYPE svg PUBLIC "-//W3C//DTD SVG 1.1//EN" "http://www.w3.org/Graphics/SVG/1.1/DTD/svg11.dtd">
<svg version="1.1" id="bass" xmlns="http://www.w3.org/2000/svg" xmlns:xlink="http://www.w3.org/1999/xlink" x="0px" y="0px"
	 viewBox="0 0 300 300" enable-background="new 0 0 300 300" xml:space="preserve">
<path d="M0,0v300h300V0H0z M165.2,216h-35.8v-31.6h35.8V216z M194.4,136.2c-2.8,4.6-8.4,10.3-16.9,17c-5.9,4.7-9.7,8.5-11.2,11.3
	c-1.6,2.8-2.3,6.5-2.3,11.1h-33.4v-3.3c0-5.7,0.6-10.3,1.9-13.8c1.3-3.5,3.2-6.8,5.8-9.7c2.5-2.9,8.3-8.1,17.2-15.5
	c4.7-3.9,7.1-7.4,7.1-10.6c0-3.2-1-5.7-2.9-7.5c-1.9-1.8-4.8-2.7-8.7-2.7c-4.2,0-7.6,1.4-10.3,4.1c-2.7,2.8-4.5,7.6-5.2,14.4
	l-34.1-4.2c1.2-12.5,5.7-22.6,13.7-30.3C123,88.8,135.2,85,151.6,85c12.8,0,23.1,2.7,30.9,8c10.7,7.2,16,16.8,16,28.8
	C198.6,126.8,197.2,131.6,194.4,136.2z"/>
</svg>
