<?xml version="1.0" encoding="utf-8"?>
<!-- Generator: Adobe Illustrator 18.0.0, SVG Export Plug-In . SVG Version: 6.00 Build 0)  -->
<!DOCTYPE svg PUBLIC "-//W3C//DTD SVG 1.1//EN" "http://www.w3.org/Graphics/SVG/1.1/DTD/svg11.dtd">
<svg version="1.1" id="guitar" xmlns="http://www.w3.org/2000/svg" xmlns:xlink="http://www.w3.org/1999/xlink" x="0px" y="0px"
	 viewBox="-187 308 100 100" enable-background="new -187 308 100 100" xml:space="preserve">
<g>
	<rect x="-140.8" y="373.1" width="7.6" height="2.8"/>
	<rect x="-140.8" y="377.8" width="7.6" height="2.8"/>
	<circle cx="-128.1" cy="392.1" r="1.5"/>
	<circle cx="-126.2" cy="387.3" r="1.5"/>
	<path d="M-187,308v100h100V308H-187z M-137,400.5c-8.3,0-15-5.9-15-13.2c0-3.1,1.2-5.9,3.2-8.1l0,0c5.3-6.7,3-5.6,1.4-11.3
		s2-7.4,4.8-6.8c1.6,0.3,2.3,0.1,2.6-0.2l0-30.4c-0.1-1.3-0.9-2.4-2-2.7v-0.2c0.6-1.4,1-3.2,1-5.2c0-2-0.4-3.8-1-5.2v-0.9
		c0-0.5,0.7-0.9,1.5-0.9h4.9c0.8,0,1.5,0.4,1.5,0.9c0,0.5,0,0.9,0,0.9c-0.6,1.4-0.9,3.2-0.9,5.2c0,2,0.4,3.8,0.9,5.2v0.3
		c-1,0.3-1.8,1.4-1.8,2.6l0.3,31c0.6,1.7,2.2,4.5,4.8,4.5c3.2,0,3.7-3,3.7-3c0.9,1,1.2,2.3,0.7,4.7c-0.5,2.4-4.2,5.8,0,9.1
		c2.8,2.2,3.9,5.9,4.2,8.2c0.1,0.6,0.2,1.2,0.2,1.8c0,0.1,0,0.1,0,0.1l0,0c0,0.1,0,0.3,0,0.4C-122,394.6-128.7,400.5-137,400.5z"/>
</g>
</svg>
