<?xml version="1.0" encoding="utf-8"?>
<!-- Generator: Adobe Illustrator 18.0.0, SVG Export Plug-In . SVG Version: 6.00 Build 0)  -->
<!DOCTYPE svg PUBLIC "-//W3C//DTD SVG 1.1//EN" "http://www.w3.org/Graphics/SVG/1.1/DTD/svg11.dtd">
<svg version="1.1" id="piano" xmlns="http://www.w3.org/2000/svg" xmlns:xlink="http://www.w3.org/1999/xlink" x="0px" y="0px"
	 viewBox="-187 308 100 100" enable-background="new -187 308 100 100" xml:space="preserve">
<path d="M-187,308v100h100V308H-187z M-172.2,366.9c0,1.6-1.3,1.8-2.8,1.8h-1.7c-1.6,0-2.8-0.3-2.8-1.8v-19.7h5.4v10.6
	c0,0.5,0.4,0.9,0.9,0.9s0.9,0.4,0.9,0.9V366.9z M-163.7,366.9c0,1.6-1.3,1.8-2.8,1.8h-1.7c-1.6,0-2.8-0.3-2.8-1.8v-7.1
	c0-0.5,0.4-0.9,0.9-0.9c0.5,0,0.9-0.4,0.9-0.9v-10.6h3.8v10.6c0,0.5,0.4,0.9,0.9,0.9c0.5,0,0.9,0.4,0.9,0.9V366.9z M-154.9,366.9
	c0,1.6-1.3,1.8-2.8,1.8h-1.7c-1.6,0-2.8-0.3-2.8-1.8v-7.1c0-0.5,0.4-0.9,0.9-0.9s0.9-0.4,0.9-0.9v-10.6h5.4V366.9z M-146.4,366.9
	c0,1.6-1.3,1.8-2.8,1.8h-1.7c-1.6,0-2.8-0.3-2.8-1.8v-19.7h5.4v10.6c0,0.5,0.4,0.9,0.9,0.9s0.9,0.4,0.9,0.9V366.9z M-137.8,366.9
	c0,1.6-1.3,1.8-2.8,1.8h-1.7c-1.6,0-2.8-0.3-2.8-1.8v-7.1c0-0.5,0.4-0.9,0.9-0.9s0.9-0.4,0.9-0.9v-10.6h3.8v10.6
	c0,0.5,0.4,0.9,0.9,0.9s0.9,0.4,0.9,0.9V366.9z M-129,366.9c0,1.6-1.3,1.8-2.8,1.8h-1.7c-1.6,0-2.8-0.3-2.8-1.8v-7.1
	c0-0.5,0.4-0.9,0.9-0.9c0.5,0,0.9-0.4,0.9-0.9v-10.6h3.8v10.6c0,0.5,0.4,0.9,0.9,0.9s0.9,0.4,0.9,0.9V366.9z M-120.3,366.9
	c0,1.6-1.3,1.8-2.8,1.8h-1.7c-1.6,0-2.8-0.3-2.8-1.8v-7.1c0-0.5,0.4-0.9,0.9-0.9s0.9-0.4,0.9-0.9v-10.6h5.4V366.9z M-111.8,366.9
	c0,1.6-1.3,1.8-2.8,1.8h-1.7c-1.6,0-2.8-0.3-2.8-1.8v-19.7h5.4v10.6c0,0.5,0.4,0.9,0.9,0.9s0.9,0.4,0.9,0.9V366.9z M-103.2,366.9
	c0,1.6-1.3,1.8-2.8,1.8h-1.7c-1.6,0-2.8-0.3-2.8-1.8v-7.1c0-0.5,0.4-0.9,0.9-0.9c0.5,0,0.9-0.4,0.9-0.9v-10.6h3.8v10.6
	c0,0.5,0.4,0.9,0.9,0.9s0.9,0.4,0.9,0.9V366.9z M-94.5,366.9c0,1.6-1.3,1.8-2.8,1.8H-99c-1.6,0-2.8-0.3-2.8-1.8v-7.1
	c0-0.5,0.4-0.9,0.9-0.9s0.9-0.4,0.9-0.9v-10.6h5.4V366.9z"/>
</svg>
