<?xml version="1.0" encoding="utf-8"?>
<!DOCTYPE svg PUBLIC "-//W3C//DTD SVG 1.1//EN" "http://www.w3.org/Graphics/SVG/1.1/DTD/svg11.dtd">

<svg version="1.1" id="recorder" xmlns="http://www.w3.org/2000/svg" x="0px" y="0px"
     viewBox="-187 308 100 100" enable-background="new -187 308 100 100" xml:space="preserve">
    <g>
        <path d="M-137.2,366c0.5,0,1-0.4,1-1c0-0.5-0.4-1-1-1c-0.5,0-1,0.4-1,1C-138.2,365.6-137.7,366-137.2,366z"/>
        <circle cx="-137.2" cy="353.6" r="1"/>
        <circle cx="-137.2" cy="370.7" r="1"/>
        <circle cx="-137.2" cy="359.3" r="1"/>
        <circle cx="-137.3" cy="382.1" r="1.4"/>
        <path d="M-187,308v100h100V308H-187z M-138.9,315.5l4.5,0c0,0,1.5,2.5,1.1,7.7c0,0-3.9-1.3-7,0
            C-140.4,323.1-141.4,318.3-138.9,315.5z M-134.2,389.6c0,0,0.6,1.4-0.8,3.4c-1.3,2,0.3,3.5,0.3,3.5s1.6,1.4,1.4,2.8l0,0
            c0,0,0,0,0,0.1c-0.2,0.7-2,1.1-3.8,1.1c-1.8,0-3.6-0.4-3.8-1.1c0,0,0,0,0-0.1l0,0c-0.2-1.4,1.4-2.8,1.4-2.8s1.7-1.5,0.4-3.5
            c-1.3-2-0.7-3.4-0.7-3.4l0.5-6l-0.4-35.4c0,0-1.5-3.1-0.8-5.3c0.7-2.2,1.1-4.9,1.1-4.9s-0.2-9.3-0.8-10.6c-0.6-1.3,0-3,0-3
            s2.7-1.1,6.7,0c0,0,0.6,1.8,0,3c-0.6,1.3-0.9,10.6-0.9,10.6s0.4,2.8,1.1,5c0.7,2.2-0.8,5.3-0.8,5.3l-0.6,35.4L-134.2,389.6z"/>
        <path d="M-137,387.1c-0.8,0-1.4,0.6-1.4,1.4c0,0.8,0.6,1.4,1.4,1.4c0.8,0,1.4-0.6,1.4-1.4C-135.6,387.7-136.2,387.1-137,387.1z"/>
        <circle cx="-137.2" cy="376.4" r="1"/>
    </g>
</svg>
