<?xml version="1.0" encoding="utf-8"?>
<!-- Generator: Adobe Illustrator 18.0.0, SVG Export Plug-In . SVG Version: 6.00 Build 0)  -->
<!DOCTYPE svg PUBLIC "-//W3C//DTD SVG 1.1//EN" "http://www.w3.org/Graphics/SVG/1.1/DTD/svg11.dtd">
<svg version="1.1" id="ukulele" xmlns="http://www.w3.org/2000/svg" xmlns:xlink="http://www.w3.org/1999/xlink" x="0px" y="0px"
	 viewBox="22 518 100 100" enable-background="new 22 518 100 100" xml:space="preserve">
<g>
	<circle cx="72.1" cy="583.2" r="3.8"/>
	<path d="M76.9,597H67c-0.8,0-1.4,0.6-1.4,1.4c0,0.4,0.2,0.7,0.4,1c0.3,0.3,0.6,0.4,1,0.4l10,0c0.8,0,1.4-0.6,1.4-1.4
		C78.3,597.6,77.7,597,76.9,597z"/>
	<path d="M22,518v100h100V518H22z M78.5,529.5l2.7-0.6c0.2,0,0.4,0.1,0.4,0.3v2.7c0,0.2-0.2,0.4-0.4,0.3l-2.7-0.6
		c-0.2,0-0.4-0.3-0.4-0.5l0-1C78.1,529.8,78.3,529.6,78.5,529.5z M78.1,536.8c0-0.2,0.2-0.5,0.4-0.5l2.7-0.6c0.2,0,0.4,0.1,0.4,0.3
		l0,2.7c0,0.2-0.2,0.4-0.4,0.3l-2.7-0.6c-0.2,0-0.4-0.3-0.4-0.5V536.8z M62.4,529.2c0-0.2,0.2-0.4,0.4-0.3l2.7,0.6
		c0.2,0,0.4,0.3,0.4,0.5l0,1c0,0.2-0.2,0.5-0.4,0.5l-2.7,0.6c-0.2,0.1-0.4-0.1-0.4-0.3V529.2z M62.4,536c0-0.2,0.2-0.4,0.4-0.3
		l2.7,0.6c0.2,0,0.4,0.3,0.4,0.5v1c0,0.2-0.2,0.5-0.4,0.5l-2.7,0.6c-0.2,0.1-0.4-0.1-0.4-0.3V536z M72.1,610.5
		c-9,0-16.5-4.7-16.5-13.8c0-2.9,0.9-5.8,2.4-8.3c1.3-2.1,2.1-2.7,1.2-5.1c-1.4-4.2-0.5-9.1,2.3-12.5c1-1.2,2.2-2.3,3.6-3.1
		c0.3-0.2,4.2-1.8,4.2-1.7c0-4.6,0-19.6,0-24.2c-1.3-0.9-2.1-2.3-2.1-3.9v-7.5c0-2.6,2.2-4.8,4.8-4.8c2.6,0,4.8,2.2,4.8,4.8l0,7.5
		c0,1.6-0.8,3-2,3.9c0,4.6,0,19.6,0,24.3c0,0.1,4,1.7,4.3,1.9c2.1,1.3,4,3.3,5,5.4c0.9,1.8,1.4,3.7,1.1,5.7c-0.3,2-1.2,3.9-1,5.9
		c0.1,1.9,1.8,3.1,2.5,4.7c1.1,2.2,1.6,4.6,1.6,7.1C88.4,605.8,81.1,610.5,72.1,610.5z"/>
	<path d="M67.5,578.5c-2.5,2.5-2.5,6.7,0,9.2c2.5,2.5,6.7,2.5,9.2,0c2.5-2.5,2.5-6.7,0-9.2C74.2,576,70,576,67.5,578.5z M75.8,586.8
		c-2,2-5.3,2-7.3,0c-2-2-2-5.3,0-7.3c2-2,5.3-2,7.3,0C77.8,581.5,77.8,584.8,75.8,586.8z"/>
</g>
</svg>
