<?xml version="1.0" encoding="UTF-8" standalone="no"?>
<!-- Created with Inkscape (http://www.inkscape.org/) -->
<svg xmlns:dc="http://purl.org/dc/elements/1.1/" xmlns:cc="http://web.resource.org/cc/" xmlns:rdf="http://www.w3.org/1999/02/22-rdf-syntax-ns#" xmlns:svg="http://www.w3.org/2000/svg" xmlns="http://www.w3.org/2000/svg" xmlns:sodipodi="http://inkscape.sourceforge.net/DTD/sodipodi-0.dtd" xmlns:inkscape="http://www.inkscape.org/namespaces/inkscape" sodipodi:docname="fender-big.svg" sodipodi:docbase="/home/greycat/wikipedia/headstocks" height="297mm" width="210mm" inkscape:version="0.41+cvs" sodipodi:version="0.32" id="svg1309">
  <metadata id="metadata1314">
    <rdf:RDF id="RDF1316">
      <cc:Work id="Work1318" rdf:about="">
        <dc:format id="format1320">image/svg+xml</dc:format>
        <dc:type rdf:resource="http://purl.org/dc/dcmitype/StillImage" id="type1322"/>
      </cc:Work>
    </rdf:RDF>
  </metadata>
  <defs id="defs1312"/>
  <sodipodi:namedview inkscape:current-layer="svg1309" inkscape:window-y="25" inkscape:window-x="0" inkscape:cy="509.66258" inkscape:cx="454.69590" inkscape:zoom="0.35355339" id="base" pagecolor="#ffffff" bordercolor="#666666" borderopacity="1.0" inkscape:pageopacity="0.0" inkscape:pageshadow="2" inkscape:window-width="1016" inkscape:window-height="654"/>
  <path sodipodi:nodetypes="ccccccccccccc" id="path1326" d="M 187.35737,1050.8323 L 412.88426,1052.2968 C 412.88426,1052.2968 418.74223,913.17303 464.14038,853.13020 C 526.15544,771.11040 632.55339,765.26254 632.55339,765.26254 C 632.55339,765.26254 634.01796,618.52417 578.36831,514.83980 C 546.76180,426.48291 508.07423,394.75405 505.14531,347.89130 C 499.28746,287.84837 582.72595,236.51026 593.01292,226.34106 C 600.13098,218.56717 632.55339,179.47834 625.23104,135.54451 C 619.82072,103.08265 598.87078,15.458728 491.96520,9.6008804 C 364.72229,2.4837491 327.94557,116.50654 327.94557,116.50654 L 131.70787,844.34343 C 131.70787,844.34343 193.21520,898.52845 191.75076,957.10687 C 188.82182,982.00272 187.35737,1050.8323 187.35737,1050.8323 z " style="fill:none;fill-opacity:0.75000000;fill-rule:evenodd;stroke:#000000;stroke-width:6.4439216;stroke-linecap:round;stroke-linejoin:round;stroke-miterlimit:4.0000000;stroke-opacity:1.0000000"/>
</svg>