<?xml version="1.0" encoding="utf-8"?>

<!DOCTYPE svg PUBLIC "-//W3C//DTD SVG 1.1//EN" "http://www.w3.org/Graphics/SVG/1.1/DTD/svg11.dtd">

<svg xmlns="http://www.w3.org/2000/svg">
    <defs>
        <symbol id="icon-bass" viewBox="0 0 32 32">
            <path d="
                M31.7,0.4c-0.3-0.1-0.6-0.2-0.8-0.3c-0.3-0.2-0.7-0.2-0.9,0.1c-0.9,0.8-1.9,1.4-2.7,1.7
                C27,2,26.7,2.4,26.8,2.8c0.1,0.6-0.3,1.1-0.5,1.3l-0.1,0.1l0,0L11.7,17.9c-0.1,0.1-0.5,0.4-0.9,0c-0.5-0.5-0.6-2.2,1.7-4.5
                c0,0,0.6-0.4,0.2-0.8c-0.4-0.4-1.5,0.2-2.3,1c-2.3,2.3-2.3,4-3.4,5.2c-1.4,1.4-4,1.2-5.8,3c0,0-3.3,3,1.3,7.7C6,33,8,32.3,9.6,30.7
                c2-2.1,1.1-4.1,1.7-4.7c1.1-1.1,2.3-0.9,3.4-2.3c0.6-0.8,0.1-1.5-0.5-0.9c-0.5,0.5-1.7,1.1-2.3,0.4c-0.5-0.5-0.3-1.3,0.9-2.7
                L27.4,5.7C28,5.1,28.6,4.9,29,4.8c0.4,0,0.7-0.3,0.9-0.7c0.4-1,1.3-2.1,2-2.7C32.1,0.9,32,0.5,31.7,0.4z M7.7,27.7
                c-0.3,0.3-0.7,0.3-1,0L4,24.9c-0.3-0.3-0.3-0.8,0-1c0.3-0.3,0.7-0.3,1,0l2.7,2.8C8,26.9,8,27.4,7.7,27.7z"
            />
        </symbol>

        <symbol id="icon-drums" viewBox="0 0 32 32">
            <path d="
                M5.2,28.4H4.8c-0.2,0-0.3-0.2-0.3-0.3V4.6c0-0.2,0.2-0.3,0.3-0.3h0.4c0.2,0,0.3,0.2,0.3,0.3v23.5
                C5.5,28.3,5.4,28.4,5.2,28.4z"
            />
            <path d="M8.5,28.6h-7c-0.3,0-0.5-0.2-0.5-0.5v-0.1c0-0.3,0.2-0.5,0.5-0.5h7c0.3,0,0.5,0.2,0.5,0.5v0.1C9,28.4,8.8,28.6,8.5,28.6z" />
            <path d="M12.9,7.9c-0.2,0.2-2.4-1.3-4.8-3.4s-4.2-4.1-4-4.3c0.2-0.2,2.4,1.3,4.8,3.4S13.1,7.6,12.9,7.9z" />
            <path d="
                M8.1,4.6L2.2,8.5c-0.1,0.1-0.2,0-0.3-0.1L1.7,8.1C1.6,8,1.6,7.9,1.7,7.8l5.9-3.8C7.8,3.9,7.9,3.9,8,4l0.2,0.3
                C8.2,4.4,8.2,4.5,8.1,4.6z"
            />
            <path d="
                M26.3,13.5h-0.3c-0.2,0-0.4-0.2-0.4-0.4V2.7c0-0.2,0.2-0.4,0.4-0.4h0.3c0.2,0,0.4,0.2,0.4,0.4v10.4
                C26.7,13.3,26.5,13.5,26.3,13.5z"
            />
            <ellipse cx="26.2" cy="4.5" rx="5.8" ry="0.8" />
            <path d="
                M7.1,22.1c0-4.6,2.9-8.6,6.9-10.2l0.1-0.5h0c0.1-0.6-2.5-1.4-5.7-1.8c-3.2-0.4-5.9-0.3-6,0.3h0L1,20.4
                c-0.1,0.6,2.5,1.4,5.7,1.8c0.1,0,0.3,0,0.4,0C7.2,22.2,7.1,22.2,7.1,22.1z"
            />
            <path d="
                M11.4,27l-1,4.3c-0.1,0.2-0.3,0.4-0.5,0.3l-0.1,0c-0.3-0.1-0.5-0.3-0.4-0.6l0.9-4.3c0.1-0.2,0.3-0.4,0.5-0.3l0.2,0
                C11.3,26.5,11.5,26.7,11.4,27z"
            />
            <path d="
                M25.3,27l1,4.3c0.1,0.2,0.3,0.4,0.5,0.3l0.1,0c0.3-0.1,0.5-0.3,0.4-0.6l-0.9-4.3c-0.1-0.2-0.3-0.4-0.5-0.3l-0.2,0
                C25.4,26.5,25.3,26.7,25.3,27z"
            />
            <ellipse cx="18.3" cy="22.1" rx="9.7" ry="9.6" />
            <path d="M26,9.9c-3.3,0-6,0.1-6,1.1v0.2c3,0.4,5.5,2,7.2,4.3C29.9,15.4,32,15,32,15v-4C32,10,29.3,9.9,26,9.9z" />
        </symbol>

        <symbol id="icon-guitar" viewBox="0 0 32 32">
            <path d="
                M32,2l-0.4-1.2c-0.1-0.2-0.2-0.3-0.4-0.4L30,0c-0.2-0.1-0.4,0-0.5,0.1l-1.8,2.1l-0.1,0.6l-9.3,9.1
                c-2.6-1.9-5.7-1.6-6.8-0.4c-2.2,2.3-1,2.6-2.4,4c-1.4,1.4-4.5-0.2-8,3.7c-2.1,2.3-1,7,1.9,9.9s7.6,4,9.9,1.9c3.8-3.5,2.3-6.6,3.7-8
                s1.7-0.2,4-2.4c1.2-1.2,1.5-4.2-0.4-6.8l9.1-9.3l0.6-0.1l2.1-1.8C32,2.4,32,2.2,32,2z M14.8,20c-0.8,0.8-2,0.8-2.8,0
                c-0.8-0.8-0.8-2,0-2.8c0.8-0.8,2-0.8,2.8,0C15.6,18,15.6,19.2,14.8,20z"
            />
        </symbol>

        <symbol id="icon-piano" viewBox="0 0 32 32">
            <path d="
                M28.5,8.2h-7.3c-1.7,0-3-1.4-3-3.1V3.6c0-2-1.6-3.6-3.5-3.6H2.5C1.1,0,0,1.1,0,2.5v13.1v7.6v5.6
                C0,30.5,1.4,32,3.2,32h25.6c1.8,0,3.2-1.5,3.2-3.3v-5.6v-7.6v-3.8C32,9.8,30.4,8.2,28.5,8.2z M30.2,28.7c0,0.8-0.6,1.4-1.4,1.4H3.2
                c-0.8,0-1.4-0.6-1.4-1.4v-5.6H5v3.3c0,0.5,0.4,0.9,0.9,0.9s0.9-0.4,0.9-0.9v-3.3h2.2v3.3c0,0.5,0.4,0.9,0.9,0.9
                c0.5,0,0.9-0.4,0.9-0.9v-3.3h3h3.3v3.3c0,0.5,0.4,0.9,0.9,0.9c0.5,0,0.9-0.4,0.9-0.9v-3.3h2.2v3.3c0,0.5,0.4,0.9,0.9,0.9
                s0.9-0.4,0.9-0.9v-3.3h2.2v3.3c0,0.5,0.4,0.9,0.9,0.9S27,27,27,26.5v-3.3h3.3V28.7z"
            />
        </symbol>

        <symbol id="icon-recorder" viewBox="0 0 32 32">
            <path d="M0,1.6L1.6,0c0,0,1.4,0.3,3.1,2.3c0,0-1.9,0.9-2.5,2.5C2.2,4.8,0.1,3.4,0,1.6z"/>
            <path d="
                M31.9,29.3c-0.4-0.6-1.5-0.5-1.5-0.5s-1.1,0-1.4-1.1c-0.2-1.2-0.9-1.5-0.9-1.5l-2.3-2L13.4,11.5c0,0-0.6-1.6-1.6-2.2
                C10.8,8.8,9.7,8,9.7,8s-3.2-3.4-3.5-4C6,3.3,5.1,2.8,5.1,2.8c-1.8,1-2.4,2.4-2.4,2.4S3.2,6,3.8,6.3c0.7,0.2,4.1,3.5,4.1,3.5
                s0.8,1.1,1.4,2.1c0.5,1,2.2,1.6,2.2,1.6l12.8,12.4l2,2.3c0,0,0.3,0.7,1.5,0.9c1.2,0.2,1.1,1.4,1.1,1.4s-0.1,1.1,0.5,1.5l0,0
                c0,0,0,0,0,0c0.3,0.2,1.1-0.3,1.7-0.9C31.6,30.4,32.1,29.6,31.9,29.3C32,29.3,32,29.3,31.9,29.3L31.9,29.3z M13.9,14.1
                c0.2-0.2,0.5-0.2,0.7,0c0.2,0.2,0.2,0.5,0,0.7c-0.2,0.2-0.5,0.2-0.7,0C13.7,14.6,13.7,14.3,13.9,14.1z M15.9,16.1
                c0.2-0.2,0.5-0.2,0.7,0c0.2,0.2,0.2,0.5,0,0.7c-0.2,0.2-0.5,0.2-0.7,0C15.7,16.6,15.7,16.3,15.9,16.1z M17.9,18.2
                c0.2-0.2,0.5-0.2,0.7,0c0.2,0.2,0.2,0.5,0,0.7c-0.2,0.2-0.5,0.2-0.7,0C17.8,18.7,17.8,18.4,17.9,18.2z M20,20.2
                c0.2-0.2,0.5-0.2,0.7,0c0.2,0.2,0.2,0.5,0,0.7c-0.2,0.2-0.5,0.2-0.7,0C19.8,20.7,19.8,20.4,20,20.2z M22,22.2
                c0.2-0.2,0.5-0.2,0.7,0c0.2,0.2,0.2,0.5,0,0.7c-0.2,0.2-0.5,0.2-0.7,0C21.8,22.7,21.8,22.4,22,22.2z M23.9,25.1
                c-0.3-0.3-0.3-0.7,0-1c0.3-0.3,0.7-0.3,1,0c0.3,0.3,0.3,0.7,0,1C24.6,25.4,24.1,25.4,23.9,25.1z M27.2,27.3c-0.3,0.3-0.7,0.3-1,0
                c-0.3-0.3-0.3-0.7,0-1c0.3-0.3,0.7-0.3,1,0C27.5,26.5,27.5,27,27.2,27.3z"
            />
        </symbol>

        <symbol id="icon-ukulele" viewBox="0 0 32 32">
            <path d="
                M26.7,16.6c-0.8-0.3-1.8-0.1-2.5-0.7c-0.8-0.7-1.1-1.6-1.7-2.4c-0.6-0.8-1.4-1.3-2.4-1.6c-1.1-0.4-2.4-0.4-3.6-0.1
                c-0.2,0.1-2.1,0.9-2.1,0.8c-1.6-1.6-4.3-4.3-5.9-5.9c0.1-0.7-0.1-1.5-0.6-2L5.3,2.1c-0.9-0.9-2.4-0.9-3.3,0s-0.9,2.4,0,3.3L4.6,8
                C5.2,8.5,6,8.7,6.7,8.6c1.6,1.6,4.3,4.3,5.9,5.9c0,0-0.8,1.8-0.9,2c-0.2,0.7-0.2,1.5-0.2,2.3c0.2,2.1,1.6,4.1,3.5,5.1
                c1.1,0.6,1,1,1.3,2.2c0.4,1.4,1,2.7,2.1,3.7c3.1,3.1,8.1,3.1,11.2,0c3.1-3.1,3.1-8.1,0-11.2C28.8,17.6,27.8,17,26.7,16.6z
                 M19.4,22.5c-1.7,0-3.2-1.4-3.2-3.2c0-1.7,1.4-3.2,3.2-3.2c1.7,0,3.2,1.4,3.2,3.2C22.6,21.1,21.2,22.5,19.4,22.5z M26.8,23.4
                l-3.4,3.4C23.2,27,23.1,27,22.9,27s-0.3-0.1-0.5-0.2c-0.3-0.3-0.3-0.7,0-0.9l3.4-3.4c0.3-0.3,0.7-0.3,0.9,0
                C27.1,22.7,27.1,23.2,26.8,23.4z"
            />
            <path d="
                M19.4,16.9c-1.4,0-2.5,1.1-2.5,2.5s1.1,2.5,2.5,2.5c1.4,0,2.5-1.1,2.5-2.5C22,18,20.8,16.9,19.4,16.9z M17.6,19.4
                c0-1,0.8-1.9,1.9-1.9c1,0,1.9,0.8,1.9,1.9s-0.8,1.9-1.9,1.9C18.4,21.2,17.6,20.4,17.6,19.4z"
            />
            <path d="
                M6.6,0.1C6.6,0,6.4,0,6.4,0.1L5.7,1.2c-0.1,0.1,0,0.2,0,0.3l0.4,0.4C6.2,2,6.3,2,6.4,1.9l1.1-0.7c0.1-0.1,0.1-0.2,0-0.2
                L6.6,0.1z"
            />
            <path d="
                M1.2,7.5l0.7-1.1c0.1-0.1,0-0.2,0-0.3L1.5,5.7c-0.1-0.1-0.2-0.1-0.3,0L0.1,6.4C0,6.5,0,6.6,0.1,6.6L1,7.6
                C1,7.6,1.2,7.6,1.2,7.5z"
            />
            <path d="
                M8.7,2.4L8,3.5C8,3.6,8,3.8,8,3.9l0.4,0.4c0.1,0.1,0.2,0.1,0.3,0l1.1-0.7c0.1-0.1,0.1-0.2,0-0.2L9,2.4
                C8.9,2.3,8.8,2.3,8.7,2.4z"
            />
            <path d="
                M3.5,9.9l0.7-1.1c0.1-0.1,0-0.2,0-0.3L3.9,8C3.8,8,3.6,7.9,3.5,8L2.4,8.7C2.3,8.8,2.3,8.9,2.4,9l0.9,0.9
                C3.4,10,3.5,10,3.5,9.9z"
            />
        </symbol>

        <symbol id="icon-vocals" viewBox="0 0 32 32">
            <path d="
                M22.5,11.6l-6.1-6.1c0-0.1,0-0.3,0-0.4c0-0.1,0-0.1,0-0.2c0,0,0,0,0,0c0-0.1,0-0.1,0-0.2c0,0,0,0,0,0c0-0.1,0-0.1,0-0.2
                c0,0,0,0,0,0c0-0.1,0-0.1,0.1-0.2c0,0,0,0,0,0c0.1-0.3,0.2-0.6,0.3-0.8c0,0,0,0,0,0c0,0,0-0.1,0.1-0.1c0,0,0-0.1,0-0.1
                c0,0,0-0.1,0.1-0.1c0,0,0-0.1,0.1-0.1c0,0,0-0.1,0.1-0.1c0,0,0-0.1,0.1-0.1c0,0,0-0.1,0.1-0.1c0,0,0.1-0.1,0.1-0.1
                c0,0,0-0.1,0.1-0.1c0,0,0.1-0.1,0.1-0.1c0,0,0-0.1,0.1-0.1c0,0,0.1-0.1,0.1-0.1c0,0,0,0,0.1-0.1C17.9,1.8,18,1.8,18,1.7
                C18.3,1.4,18.6,1.2,19,1c0.2-0.2,0.5-0.3,0.8-0.4c0.3-0.1,0.5-0.2,0.8-0.3c1.1-0.3,2.2-0.3,3.3,0c0.3,0.1,0.5,0.2,0.8,0.3
                c0.3,0.1,0.5,0.3,0.8,0.4c0.3,0.2,0.6,0.5,0.9,0.7c2.3,2.3,2.3,6,0,8.2c-0.1,0.1-0.1,0.1-0.2,0.2c0,0,0,0-0.1,0.1
                c0,0-0.1,0.1-0.1,0.1c0,0-0.1,0-0.1,0.1c0,0-0.1,0.1-0.1,0.1c0,0-0.1,0-0.1,0.1c0,0-0.1,0.1-0.1,0.1c0,0-0.1,0-0.1,0.1
                c0,0-0.1,0-0.1,0.1c0,0-0.1,0-0.1,0.1c0,0-0.1,0-0.1,0.1c0,0-0.1,0-0.1,0.1c0,0-0.1,0-0.1,0c0,0-0.1,0-0.1,0.1c0,0,0,0,0,0
                c-0.3,0.1-0.5,0.2-0.8,0.3c0,0,0,0,0,0c-0.1,0-0.1,0-0.2,0.1c0,0,0,0,0,0c-0.1,0-0.1,0-0.2,0c0,0,0,0,0,0c-0.1,0-0.1,0-0.2,0
                c0,0,0,0,0,0c-0.1,0-0.1,0-0.2,0l0,0C22.8,11.6,22.6,11.6,22.5,11.6z M26.8,20.7c-1-1-2.4-1.6-3.9-1.6s-2.8,0.6-3.9,1.6l-8.4,8.4
                c-0.7,0.7-1.6,1.1-2.6,1.1s-1.9-0.4-2.6-1.1l-0.1-0.1c-1.4-1.4-1.4-3.8,0-5.2l2.2-2.2l0.6,0.6c0.2,0.2,0.4,0.3,0.6,0.3
                c0.2,0,0.4-0.1,0.6-0.2l11.8-9.4c0,0,0,0,0,0l-6.1-6.1c0,0,0,0-0.1-0.1L5.6,18.4c-0.3,0.4-0.3,0.9,0.1,1.2l0.8,0.8l-2.2,2.2
                c-2.1,2.1-2.1,5.6,0,7.7l0.1,0.1c1,1,2.4,1.6,3.9,1.6s2.8-0.6,3.9-1.6l8.4-8.4c0.7-0.7,1.6-1.1,2.6-1.1s1.9,0.4,2.6,1.1l2.3,2.3
                c0.3,0.3,0.9,0.3,1.3,0c0.3-0.3,0.3-0.9,0-1.3L26.8,20.7z"
            />
        </symbol>
    </defs>
</svg>