<?xml version="1.0" encoding="iso-8859-1"?>
<!-- Generator: Adobe Illustrator 17.0.0, SVG Export Plug-In . SVG Version: 6.00 Build 0)  -->
<!DOCTYPE svg PUBLIC "-//W3C//DTD SVG 1.1//EN" "http://www.w3.org/Graphics/SVG/1.1/DTD/svg11.dtd">
<svg version="1.1" id="Capa_1" xmlns="http://www.w3.org/2000/svg" xmlns:xlink="http://www.w3.org/1999/xlink" x="0px" y="0px"
	 width="64px" height="64px" viewBox="0 0 64 64" style="enable-background:new 0 0 64 64;" xml:space="preserve">
<path d="M48.621,38.212c1.68,0,3.042-1.362,3.042-3.042s-1.362-3.042-3.042-3.042c-1.133,0-1.388,0.627-1.437,1.545h-2.91
	c-1.028-2.043-1.601-4.068-1.855-6.007h2.766c0.049,0.919,0.304,1.545,1.437,1.545c1.68,0,3.042-1.362,3.042-3.042
	s-1.362-3.042-3.042-3.042c-1.133,0-1.388,0.627-1.437,1.545h-2.927c0.052-2.227,0.467-4.271,1-6.007h2.927
	c0.049,0.919,0.304,1.545,1.437,1.545c1.68,0,3.042-1.362,3.042-3.042s-1.362-3.042-3.042-3.042c-1.133,0-1.388,0.627-1.437,1.545
	h-1.795c0.352-0.777,0.686-1.412,0.947-1.871c0.55-0.971,1.202-2.333,1.937-4.05c0.25-0.584,0.309-1.588-0.027-2.257
	c-1.794-3.576-5.388-5.798-9.379-5.798h-0.419c-0.243,0-0.45,0.122-0.555,0.328c-0.159,0.311-0.051,0.695,0.35,1.249
	c1.094,1.514,1.583,2.925,1.583,3.651c0,1.853-3.129,3.417-6.833,3.417s-6.833-1.564-6.833-3.417c0-0.727,0.489-2.138,1.583-3.651
	c0.4-0.554,0.508-0.938,0.35-1.249c-0.105-0.206-0.312-0.328-0.555-0.328h-0.419c-3.97,0-7.555,2.205-9.357,5.754
	c-0.304,0.599-0.319,1.59-0.034,2.257c0.742,1.735,1.4,3.113,1.956,4.094c0.26,0.458,0.595,1.094,0.946,1.871h-1.812
	c-0.049-0.919-0.304-1.545-1.437-1.545c-1.68,0-3.042,1.362-3.042,3.042s1.362,3.042,3.042,3.042c1.133,0,1.388-0.627,1.437-1.545
	h2.944c0.532,1.736,0.947,3.78,1,6.007h-2.943c-0.049-0.919-0.304-1.545-1.437-1.545c-1.68,0-3.042,1.362-3.042,3.042
	s1.362,3.042,3.042,3.042c1.133,0,1.388-0.627,1.437-1.545h2.782c-0.255,1.939-0.827,3.964-1.855,6.007h-2.927
	c-0.049-0.919-0.304-1.545-1.437-1.545c-1.68,0-3.042,1.362-3.042,3.042s1.362,3.042,3.042,3.042c1.133,0,1.388-0.627,1.437-1.545
	h1.086c-0.241,0.328-0.495,0.655-0.764,0.982c-0.266,0.323-0.371,0.706-0.296,1.077c0.075,0.374,0.322,0.688,0.695,0.884
	c4.684,2.47,5.997,5.857,6.214,8.451C23.305,48.321,23,48.8,23,49.354v0.896c0,0.784,0.607,1.423,1.375,1.487V63h15.25V51.737
	C40.393,51.673,41,51.034,41,50.25v-0.896c0-0.541-0.291-1.012-0.722-1.276c0.213-2.594,1.52-5.987,6.207-8.463
	c0.373-0.197,0.62-0.512,0.694-0.885c0.074-0.371-0.031-0.754-0.297-1.076c-0.27-0.328-0.525-0.657-0.767-0.987h1.069
	C47.233,37.585,47.488,38.212,48.621,38.212z"/>
</svg>
