<?xml version="1.0" encoding="utf-8"?>
<!-- Generator: Adobe Illustrator 18.0.0, SVG Export Plug-In . SVG Version: 6.00 Build 0)  -->
<!DOCTYPE svg PUBLIC "-//W3C//DTD SVG 1.1//EN" "http://www.w3.org/Graphics/SVG/1.1/DTD/svg11.dtd">
<svg version="1.1" id="Capa_1" xmlns="http://www.w3.org/2000/svg" xmlns:xlink="http://www.w3.org/1999/xlink" x="0px" y="0px"
	 viewBox="0 0 340 650" enable-background="new 0 0 340 650" xml:space="preserve">
<g>
	<g>
		<path d="M140.1,181.7c0.2,0,0.3,0,0.5,0l0,0h0c7.9,0,13.9,6,13.9,13.9v18.1v1.2l1.1,0.6c12.1,6,26,9.2,40.2,9.2l0.4,0
			c21.7,0,38.6,19.4,49,35.7c6.2,9.7,10.8,19.4,13.8,26.4c-3.6-3.7-8.4-8.2-14-12.8c-17.1-13.9-32.8-21-46.7-21
			c-1.3,0-2.5,0.1-3.7,0.2c-2.8,0.2-5.6,0.3-8.6,0.3c-9.5,0-19.7-1.2-29.6-3.5l-2.4-0.6v2.5v27.6v1.2l1.1,0.6
			c12.1,6,26,9.2,40.2,9.2l0.4,0c21.7,0,38.6,19.4,49,35.7c6.2,9.7,10.8,19.4,13.8,26.4c-3.6-3.7-8.4-8.2-14-12.8
			c-17.1-13.9-32.8-21-46.7-21c-1.3,0-2.5,0.1-3.7,0.2c-2.8,0.2-5.6,0.3-8.6,0.3c-9.5,0-19.7-1.2-29.6-3.5l-2.4-0.6v2.5v81.8v6.9
			v0.4c-1.1,17.4-9.4,34.7-23.3,48.6c-15.1,15.1-34.3,23.8-52.5,23.8c-12.6,0-23.4-4.2-31.3-12.1c-8-8-12.1-18.9-12.1-31.6
			c0.1-18.1,8.8-36.9,23.8-51.7c15-15,34-23.6,52.1-23.6c4.7,0,9.2,0.6,13.4,1.8l2.5,0.7v-2.6V195.4
			C126.3,185.9,134.4,181.7,140.1,181.7 M140.1,179.7c-7.3,0-15.8,5.4-15.8,15.7v164.7c-4.4-1.2-9.1-1.9-14-1.9
			c-17.8,0-37.6,8.3-53.5,24.2c-27.1,26.6-32.4,65.3-11.7,86.1c8.5,8.6,20.1,12.7,32.7,12.7c18,0,38-8.4,53.9-24.4
			c14.9-14.9,22.8-32.9,23.9-49.9v-0.5v-6.9v-81.8c9.2,2.1,19.6,3.6,30.1,3.6c2.9,0,5.8-0.1,8.7-0.4c1.2-0.1,2.4-0.2,3.5-0.2
			c32.5,0,66.6,41.1,66.6,41.1s-24.8-73.3-68.7-73.3c-0.2,0-0.3,0-0.4,0c-15.4,0-28.7-3.7-39.3-9v-27.6c9.2,2.1,19.6,3.6,30.1,3.6
			c2.9,0,5.8-0.1,8.7-0.4c1.2-0.1,2.4-0.2,3.5-0.2c32.5,0,66.6,41.1,66.6,41.1s-24.8-73.3-68.7-73.3c-0.2,0-0.3,0-0.4,0
			c-15.4,0-28.7-3.7-39.3-9v-18.1c0-9-6.9-15.9-15.9-15.9C140.5,179.7,140.3,179.7,140.1,179.7L140.1,179.7z"/>
	</g>
	<path fill="none" stroke="#000000" stroke-width="4" stroke-miterlimit="10" d="M124.3,195.4"/>
</g>
</svg>
