<?xml version="1.0" encoding="utf-8"?>
<!-- Generator: Adobe Illustrator 18.0.0, SVG Export Plug-In . SVG Version: 6.00 Build 0)  -->
<!DOCTYPE svg PUBLIC "-//W3C//DTD SVG 1.1//EN" "http://www.w3.org/Graphics/SVG/1.1/DTD/svg11.dtd">
<svg version="1.1" id="Capa_1" xmlns="http://www.w3.org/2000/svg" xmlns:xlink="http://www.w3.org/1999/xlink" x="0px" y="0px"
	 viewBox="0 0 64 64" enable-background="new 0 0 64 64" xml:space="preserve">
<g>
	<path d="M23.4,7.6v8.7v2.4v10.1v9.8c-3.9-1.1-8.9,0.4-12.7,4.2C5.6,47.8,4.6,55.1,8.5,59c3.9,3.9,11.2,2.9,16.3-2.2
		c2.8-2.8,4.3-6.2,4.5-9.4h0v-0.1V46V30.6c2.2,0.5,4.8,0.8,7.3,0.6c6.3-0.6,13.2,7.7,13.2,7.7s-4.7-13.9-13-13.8
		c-2.9,0-5.4-0.7-7.4-1.7v-5.2c2.2,0.5,4.8,0.8,7.3,0.6c6.3-0.6,13.2,7.7,13.2,7.7s-4.7-13.9-13-13.8c-2.9,0-5.4-0.7-7.4-1.7V7.6
		c0-1.7-1.3-3-3-3C25.1,4.6,23.4,5.6,23.4,7.6"/>
</g>
</svg>
